<svg xmlns="http://www.w3.org/2000/svg" xmlns:xlink="http://www.w3.org/1999/xlink" width="500" zoomAndPan="magnify" viewBox="0 0 375 374.999991" height="500" preserveAspectRatio="xMidYMid meet" version="1.0"><defs><g/><clipPath id="69227279e2"><path d="M 24.871094 24.863281 L 350.128906 24.863281 L 350.128906 350.136719 L 24.871094 350.136719 Z M 24.871094 24.863281 " clip-rule="nonzero"/></clipPath><clipPath id="a397553af3"><path d="M 42.121094 24.863281 L 332.878906 24.863281 C 337.453125 24.863281 341.839844 26.679688 345.074219 29.914062 C 348.308594 33.148438 350.128906 37.539062 350.128906 42.113281 L 350.128906 332.886719 C 350.128906 337.460938 348.308594 341.851562 345.074219 345.085938 C 341.839844 348.320312 337.453125 350.136719 332.878906 350.136719 L 42.121094 350.136719 C 37.546875 350.136719 33.160156 348.320312 29.925781 345.085938 C 26.691406 341.851562 24.871094 337.460938 24.871094 332.886719 L 24.871094 42.113281 C 24.871094 37.539062 26.691406 33.148438 29.925781 29.914062 C 33.160156 26.679688 37.546875 24.863281 42.121094 24.863281 Z M 42.121094 24.863281 " clip-rule="nonzero"/></clipPath></defs><g clip-path="url(#69227279e2)"><g clip-path="url(#a397553af3)"><path fill="#171717" d="M 24.871094 24.863281 L 350.128906 24.863281 L 350.128906 350.136719 L 24.871094 350.136719 Z M 24.871094 24.863281 " fill-opacity="1" fill-rule="nonzero"/></g></g><g fill="#675eeb" fill-opacity="1"><g transform="translate(32.595924, 264.55989)"><g><path d="M 191.234375 0 L 149.203125 0 L 132.71875 -43.09375 L 56.65625 -43.09375 L 40.953125 0 L 0 0 L 74.203125 -190.4375 L 114.90625 -190.4375 Z M 68.359375 -75.265625 L 120.484375 -75.265625 L 94.15625 -146.015625 Z M 68.359375 -75.265625 "/></g></g></g><g fill="#e8e8e8" fill-opacity="1"><g transform="translate(162.976817, 264.168044)"><g><path d="M 150.796875 -172.609375 C 169.421875 -155.941406 178.734375 -129.347656 178.734375 -92.828125 C 178.734375 -62.148438 170.488281 -38.125 154 -20.75 C 141.050781 -6.914062 121.101562 0 94.15625 0 L 19.15625 0 L 19.15625 -190.4375 L 93.359375 -190.4375 C 106.828125 -190.4375 117.992188 -189.0625 126.859375 -186.3125 C 135.734375 -183.5625 143.710938 -178.992188 150.796875 -172.609375 Z M 139.109375 -94.953125 C 139.109375 -113.210938 136.929688 -126.90625 132.578125 -136.03125 C 128.234375 -145.164062 121.984375 -151.148438 113.828125 -153.984375 C 105.671875 -156.828125 94.503906 -158.25 80.328125 -158.25 L 57.453125 -158.25 L 57.453125 -32.1875 L 89.359375 -32.1875 C 101.242188 -32.1875 110.6875 -33.734375 117.6875 -36.828125 C 124.695312 -39.929688 130.019531 -46.003906 133.65625 -55.046875 C 137.289062 -64.097656 139.109375 -77.398438 139.109375 -94.953125 Z M 139.109375 -94.953125 "/></g></g></g></svg>