<svg xmlns="http://www.w3.org/2000/svg" xmlns:xlink="http://www.w3.org/1999/xlink" width="500" zoomAndPan="magnify" viewBox="0 0 375 374.999991" height="500" preserveAspectRatio="xMidYMid meet" version="1.0"><defs><g/></defs><g fill="#000000" fill-opacity="1"><g transform="translate(27.664622, 247.14183)"><g><path d="M 191.234375 0 L 149.203125 0 L 132.71875 -43.09375 L 56.65625 -43.09375 L 40.953125 0 L 0 0 L 74.203125 -190.4375 L 114.90625 -190.4375 Z M 68.359375 -75.265625 L 120.484375 -75.265625 L 94.15625 -146.015625 Z M 68.359375 -75.265625 "/></g></g></g><g fill="#000000" fill-opacity="1"><g transform="translate(166.501141, 247.14183)"><g><path d="M 150.796875 -172.609375 C 169.421875 -155.941406 178.734375 -129.347656 178.734375 -92.828125 C 178.734375 -62.148438 170.488281 -38.125 154 -20.75 C 141.050781 -6.914062 121.101562 0 94.15625 0 L 19.15625 0 L 19.15625 -190.4375 L 93.359375 -190.4375 C 106.828125 -190.4375 117.992188 -189.0625 126.859375 -186.3125 C 135.734375 -183.5625 143.710938 -178.992188 150.796875 -172.609375 Z M 139.109375 -94.953125 C 139.109375 -113.210938 136.929688 -126.90625 132.578125 -136.03125 C 128.234375 -145.164062 121.984375 -151.148438 113.828125 -153.984375 C 105.671875 -156.828125 94.503906 -158.25 80.328125 -158.25 L 57.453125 -158.25 L 57.453125 -32.1875 L 89.359375 -32.1875 C 101.242188 -32.1875 110.6875 -33.734375 117.6875 -36.828125 C 124.695312 -39.929688 130.019531 -46.003906 133.65625 -55.046875 C 137.289062 -64.097656 139.109375 -77.398438 139.109375 -94.953125 Z M 139.109375 -94.953125 "/></g></g></g><path stroke-linecap="butt" transform="matrix(1.028308, 0, 0, 1.028308, -66.203869, 1.376272)" fill="none" stroke-linejoin="miter" d="M 266.359147 238.998828 L 225.503948 238.998828 L 209.461967 197.068593 L 135.455367 197.068593 L 120.237707 238.998828 L 80.389168 238.998828 L 152.568586 53.788593 L 192.098033 53.788593 Z M 146.885705 165.812751 L 197.526399 165.812751 L 171.953437 96.983801 Z M 362.033628 71.156326 C 380.1763 87.361652 389.247635 113.211919 389.247635 148.699532 C 389.247635 178.546049 381.228544 201.93095 365.190362 218.854233 C 352.601414 232.286496 333.19377 238.998828 306.96743 238.998828 L 234.032067 238.998828 L 234.032067 53.788593 L 306.211485 53.788593 C 319.301863 53.788593 330.162394 55.137137 338.793079 57.830427 C 347.423763 60.481932 355.169347 64.92643 362.033628 71.156326 Z M 350.667868 146.678614 C 350.667868 128.912016 348.55958 115.589916 344.350602 106.708516 C 340.141623 97.823318 334.059878 92.01508 326.101566 89.280004 C 318.188839 86.499343 307.324509 85.109013 293.516173 85.109013 L 271.289882 85.109013 L 271.289882 207.678409 L 302.295008 207.678409 C 313.873497 207.678409 323.051196 206.185513 329.828107 203.195923 C 336.646804 200.164547 341.824455 194.249945 345.36106 185.452117 C 348.897666 176.654288 350.667868 163.727255 350.667868 146.678614 Z M 350.667868 146.678614 " stroke="#000000" stroke-width="4.041438" stroke-opacity="1" stroke-miterlimit="4"/></svg>