<?xml version="1.0" encoding="utf-8"?>
<!-- Generator: Adobe Illustrator 25.0.1, SVG Export Plug-In . SVG Version: 6.00 Build 0)  -->
<svg version="1.1" id="Capa_1" xmlns="http://www.w3.org/2000/svg" xmlns:xlink="http://www.w3.org/1999/xlink" x="0px" y="0px"
	 viewBox="0 0 811.8 631.5" style="enable-background:new 0 0 811.8 631.5;" xml:space="preserve">
<style type="text/css">
	.st0{fill:#FFFFFF;}
</style>
<g id="Logo">
	<g>
		<path class="st0" d="M583,389.3h-64.3c-2.2,12.7-8.5,23.9-17.6,32.2H556L583,389.3z"/>
		<path class="st0" d="M219.1,377.8L219.1,377.8L219.1,377.8l5.4,11.5l4.3,9.2l10.7,23h81.6l-15-32.2l-2.8-6.1l-2.5-5.4l-13.5-28.9
			l-1.4-3l-5.8-12.5h66.6c1.7,0,3.3,0.7,4.4,1.8c1.1,1.1,1.8,2.7,1.8,4.4c0,3.5-2.8,6.2-6.2,6.2h-47.6l14.9,31.9h10.7l5.4,11.5
			l4.5,9.7l10.5,22.5h117.4c0.6,0,6.2,0,6.8,0c22.5-0.9,35.3-19.4,35.3-42c0-17.5-10.7-32.6-26-38.9c3.9-4.2,6.4-9.8,6.4-16
			c0-12-9.1-21.9-20.8-23.2c-0.8-0.1-1.7-0.1-2.5-0.1h-83.1c9.6,8.1,16.5,19.3,19,32.2h44.7c1.7,0,3.3,0.7,4.4,1.8
			c1.1,1.1,1.8,2.7,1.8,4.4c0,0.1,0,0.1,0,0.2c0,1.2-0.4,2.3-1,3.2c-1.1,1.8-3,2.9-5.3,2.9h-43.9c-0.4,12-4.6,23-11.5,31.9h71.5
			c3.2,0,5.8,2.6,5.8,5.8s-2.6,5.8-5.8,5.8h-95.2l-3-6.4c3.1-1.4,5.9-3.1,8.6-5.1c9.7-7.4,16.1-18.9,16.6-31.9c0-0.7,0.1-1.3,0.1-2
			c0-3.6-0.4-7.1-1.3-10.5c-3.8-15.6-15.9-28.4-31.1-32.2h-98.1l-8.6,32.1v0.1l5.8,12.5l14.9,31.9l5.4,11.5h-17.9l-5.4-11.5l-9.3-20
			l-5.5-11.9l-4.1-8.9l1-3.6l8.6-32.2H209l-8.6,32.2l-0.5,2v0.6l4.6,9.9L219.1,377.8z"/>
		<path class="st0" d="M531.6,333.4h51.6v-32.2H523l0,0c-13,0-23.7,10.4-24.1,23.3c0,0.3,0,0.5,0,0.8l0,0c0,0.2,0,0.3,0,0.5
			c-0.3,7.2,2.1,14.2,6.3,20.1c8.5,11.9,12.2,22.3,12.3,31.7l0,0h65.7v-31.9h-51.6c-3.4,0-6.2-2.8-6.2-6.2c0-1.7,0.7-3.3,1.8-4.4
			C528.3,334.1,529.9,333.4,531.6,333.4z"/>
		<path class="st0" d="M98.2,524.1c-1.4,2-3.8,3-7.2,3h-2.8v2.2h27.7v-2.2h-2.8c-3.1,0-5.4-0.8-6.9-2.5c-1.1-1.2-1.6-4.3-1.6-9.1
			v-48.9l52.4,64h2.1v-67c0-4.5,0.4-7.3,1.3-8.6c1.4-2,3.8-3,7.1-3h2.8v-2.2h-27.7v2.2h2.8c3.1,0,5.4,0.8,6.9,2.5
			c1.1,1.2,1.6,4.3,1.6,9.1v45.8l-48.6-59.6H84.6h-0.9H56.5v2.2h3c3,0,5.3,0.9,6.8,2.6c1.1,1.3,1.6,4.4,1.6,9.3v32.2
			c0,8.4-0.8,14.4-2.3,18c-1.5,3.5-4.3,6.4-8.4,8.7s-8.8,3.4-13.9,3.4c-4.1,0-7.5-0.7-10.3-2.2c-2.8-1.4-4.9-3.3-6.4-5.5
			s-2.5-5.3-3.1-9.3s-0.8-7.5-0.8-10.6V464c0-4.5,0.5-7.4,1.5-8.8c1.4-2.1,3.8-3.1,7-3.1h3v-2.2H0v2.2h3c3,0,5.2,0.8,6.5,2.3
			s2,4.7,2,9.6v31.1c0,9.6,0.6,16.1,1.9,19.6c1.9,5.1,5.1,9.1,9.6,12.1s11.1,4.5,19.7,4.5c8,0,14.3-1.6,18.9-4.7s7.7-6.9,9.3-11.3
			s2.4-10.7,2.4-18.7v-32.2c0-4.4,0.4-7.2,1.2-8.4c1.7-2.6,4.1-3.9,7.2-3.9h2.1c2.3,0,4,0.2,5.2,0.5c2.3,0.7,4.1,1.5,5.2,2.4
			c1.2,0.9,2.9,2.6,5.2,5.3v55.3C99.4,520,99,522.8,98.2,524.1z"/>
		<path class="st0" d="M208.5,527.1h-2.9c-1.9,0-3.7-0.5-5.3-1.4c-1.3-0.7-2.1-1.5-2.5-2.5c-0.5-1.3-0.8-3.9-0.8-8v-51.3
			c0-4.8,0.5-7.8,1.5-9c1.5-1.9,3.8-2.9,7.1-2.9h2.9v-2.2h-34v2.2h2.8c1.9,0,3.7,0.5,5.4,1.4c1.2,0.7,2,1.5,2.4,2.5
			c0.5,1.3,0.8,3.9,0.8,8v51.3c0,4.8-0.5,7.8-1.4,9c-1.5,1.9-3.9,2.9-7.1,2.9h-2.8v2.2h34L208.5,527.1L208.5,527.1z"/>
		<path class="st0" d="M289.6,454.7c1.4-1.3,3.6-2.2,6.4-2.7v-2.2h-24.5v2.2c0.5,0.1,0.8,0.1,1,0.2c2.7,0.4,4.6,1.2,5.7,2.2
			s1.7,2.1,1.7,3.3c0,1.8-0.9,4.9-2.8,9.4l-18.8,46l-20.2-46.6c-1.8-4.1-2.7-7.2-2.7-9.1c0-1.4,0.5-2.6,1.6-3.5s3.5-1.5,7.1-1.9
			v-2.2h-32.5v2.2c2.4,0.2,4.3,0.6,5.8,1.3c1.4,0.7,2.6,1.6,3.6,2.8c0.6,0.8,1.7,2.9,3.2,6.4L254,531h2.2l27.7-67.6
			C285.7,459.5,287.5,456.6,289.6,454.7z"/>
		<path class="st0" d="M310,523c-0.4,1.3-1.3,2.2-2.5,2.8c-1.7,0.9-3.5,1.3-5.3,1.3h-2.9v2.2h61.2l6.9-19.9h-2.3
			c-2.5,4.9-5,8.5-7.4,11c-1.9,1.8-3.8,3.1-5.9,3.7c-2,0.6-5.3,0.9-9.8,0.9h-13.5c-2.2,0-3.7-0.2-4.5-0.7c-0.8-0.4-1.3-1.1-1.6-1.8
			c-0.3-0.8-0.5-2.9-0.5-6.4v-26.2h17.5c3.3,0,5.8,0.4,7.4,1.2c1.6,0.8,2.8,1.9,3.5,3.2c0.5,1.1,1.1,3.6,1.6,7.4h2.2V474h-2.2
			c-0.2,4.5-1.4,7.7-3.4,9.5c-1.5,1.4-4.6,2.1-9.1,2.1h-17.5v-31.4h21.8c3.9,0,6.7,0.3,8.3,0.9c2,0.8,3.4,2,4.4,3.6s1.9,4.4,2.7,8.6
			h2.3l-0.9-17.4h-61.2v2.2h2.8c3.3,0,5.6,0.8,7,2.3c1,1.2,1.5,4.3,1.5,9.3v51.6C310.7,519.1,310.5,521.7,310,523z"/>
		<path class="st0" d="M396,492.2c0.6,0,1.1,0,1.6,0c1.2,0,2.9,0,4.9-0.1l26.9,37.1h21.2V527c-4.3-0.5-7.9-1.6-10.5-3.3
			c-2.7-1.7-5.9-5.2-9.7-10.4L414,490.6c6.7-1.5,11.6-4,14.8-7.6s4.8-7.8,4.8-12.7c0-4.6-1.4-8.5-4.2-11.8s-6.2-5.6-10.2-6.8
			s-10.2-1.8-18.7-1.8h-28.9v2.2h3c3,0,5.3,0.9,6.8,2.6c1.1,1.2,1.6,4.3,1.6,9.3v51.3c0,4.5-0.4,7.4-1.2,8.6
			c-1.4,2.2-3.8,3.3-7.2,3.3h-3v2.2h34v-2.2h-3.1c-3,0-5.2-0.9-6.7-2.6c-1.1-1.2-1.6-4.3-1.6-9.3v-23.1
			C394.9,492.2,395.5,492.2,396,492.2z M394.2,455.4c3.9-0.7,6.9-1.1,9.2-1.1c5.1,0,9.2,1.6,12.3,4.7c3.1,3.1,4.7,7.1,4.7,12.1
			c0,5.1-1.9,9.3-5.8,12.5c-3.8,3.3-9.6,4.9-17.1,4.9c-0.4,0-0.8,0-1.3,0s-1.2,0-1.9,0L394.2,455.4L394.2,455.4L394.2,455.4z"/>
		<path class="st0" d="M477.8,530.6c2,0.4,4.2,0.5,6.5,0.5c7.3,0,13.3-2.2,18-6.5c4.7-4.4,7-9.5,7-15.6c0-3.2-0.7-6.2-2.2-9.1
			s-3.6-5.4-6.3-7.5s-7.8-5.2-15.2-9.2c-9.1-4.9-14.9-8.8-17.3-11.7c-1.7-2-2.5-4.2-2.5-6.6c0-3.2,1.3-6,4-8.5s6-3.7,10.1-3.7
			c3.6,0,7.1,0.9,10.4,2.8c3.4,1.8,5.9,4.3,7.8,7.4c1.8,3.1,3.1,7.3,3.8,12.6h2.2V448h-2.2c-0.4,1.8-0.9,3.1-1.6,3.7
			c-0.6,0.6-1.5,0.9-2.5,0.9c-0.9,0-2.4-0.5-4.6-1.5c-4.7-2.1-9.2-3.1-13.4-3.1c-6.8,0-12.3,2.1-16.7,6.2c-4.4,4.1-6.6,9-6.6,14.7
			c0,3.3,0.7,6.3,2.2,9s3.7,5.2,6.5,7.5c2.9,2.3,7.7,5.3,14.5,9.1s11,6.3,12.5,7.5c2.3,1.7,3.9,3.6,5,5.6s1.6,4,1.6,5.9
			c0,3.5-1.4,6.6-4.2,9.1c-2.8,2.6-6.7,3.9-11.6,3.9c-4.2,0-8.1-0.9-11.6-2.8c-3.5-1.9-6.2-4.2-7.9-7.1c-1.7-2.8-3.1-7.1-4.1-12.8
			h-2.1V531h2.2c0.3-1.8,0.7-3,1.3-3.6s1.3-0.9,2.3-0.9s3.4,0.6,7.2,1.8S476.6,530.4,477.8,530.6z"/>
		<path class="st0" d="M542.2,454.9c1.5-1.9,3.8-2.9,7.1-2.9h2.9v-2.2h-34v2.2h2.8c1.9,0,3.7,0.5,5.4,1.4c1.2,0.7,2,1.5,2.4,2.5
			c0.5,1.3,0.8,3.9,0.8,8v51.3c0,4.8-0.5,7.8-1.4,9c-1.5,1.9-3.9,2.9-7.1,2.9h-2.8v2.2h34v-2.2h-3c-1.9,0-3.7-0.5-5.3-1.4
			c-1.3-0.7-2.1-1.5-2.5-2.5c-0.5-1.3-0.8-3.9-0.8-8v-51.3C540.7,459.1,541.2,456.1,542.2,454.9z"/>
		<path class="st0" d="M616,453.9c-6.2-2.7-15.2-4-27.1-4h-32.3v2.2h3c3,0,5.3,0.9,6.8,2.6c1.1,1.3,1.6,4.4,1.6,9.3v51.3
			c0,4.5-0.4,7.4-1.3,8.7c-1.4,2.1-3.8,3.2-7.1,3.2h-3v2.2h35.5c15.4,0,26.9-4.1,34.5-12.4c6.7-7.4,10.1-16.7,10.1-27.7
			c0-8.2-1.9-15.5-5.7-21.8C627.2,461.1,622.2,456.6,616,453.9z M614.3,515.6c-6,6.4-13.5,9.6-22.6,9.6c-3.4,0-7.5-0.5-12.5-1.6V456
			c4.5-1.1,8.5-1.7,12-1.7c9.4,0,17.1,3.2,23,9.5s9,15,9,26C623.2,500.6,620.2,509.3,614.3,515.6z"/>
		<path class="st0" d="M666.5,527.1c-3.8-0.3-6.3-0.9-7.5-1.8c-1.2-0.9-1.7-2-1.7-3.2c0-1.5,0.7-3.8,2-6.9l5.4-12.5h30.8l4.8,11.4
			c1.6,3.7,2.3,6.4,2.3,8.1c0,1.3-0.6,2.4-1.7,3.3c-1.1,0.9-3.3,1.4-6.4,1.6v2.2h31.3v-2.2c-3.2-0.2-5.8-1.1-7.6-2.7
			s-3.8-5-6.1-10.3L684.4,448h-2.1l-27.9,65.4c-2.4,5.7-4.6,9.6-6.6,11.4c-1,0.9-3.1,1.7-6.4,2.3v2.2h25L666.5,527.1L666.5,527.1
			L666.5,527.1z M680.3,466.2l13.5,32.1h-27.3L680.3,466.2z"/>
		<path class="st0" d="M798.6,516.9c6.7-7.4,10.1-16.7,10.1-27.7c0-8.2-1.9-15.5-5.7-21.8s-8.8-10.8-14.9-13.5
			c-6.2-2.7-15.2-4-27.1-4h-32.3v2.2h3c3,0,5.3,0.9,6.8,2.6c1.1,1.3,1.6,4.4,1.6,9.3v51.3c0,4.5-0.4,7.4-1.3,8.7
			c-1.4,2.1-3.8,3.2-7.1,3.2h-3v2.2h35.5C779.6,529.3,791.1,525.1,798.6,516.9z M751.3,523.5v-67.6c4.5-1.1,8.5-1.7,12-1.7
			c9.4,0,17.1,3.2,23,9.5s9,15,9,26c0,10.9-3,19.5-9,25.9c-6,6.4-13.5,9.6-22.6,9.6C760.5,525.2,756.3,524.6,751.3,523.5z"/>
		<path class="st0" d="M339.7,576.5c-1.5,0-2.5-0.1-3.1-0.4c-0.6-0.3-1-0.6-1.2-1.1s-0.3-1.6-0.3-3.4v-9.2c3.8,0,6.4-0.2,8-0.6
			c2.3-0.6,4.2-1.6,5.5-3.1s2-3.4,2-5.5c0-2.5-1-4.7-3.1-6.3c-2.1-1.7-5.5-2.5-10.2-2.5h-14.4v0.9c1.5,0,2.5,0.1,3.1,0.4
			c0.6,0.3,0.9,0.6,1.2,1.1c0.2,0.5,0.3,1.6,0.3,3.4v21.4c0,1.8-0.1,2.9-0.3,3.4c-0.2,0.5-0.6,0.8-1.1,1.1s-1.6,0.4-3.1,0.4v0.9
			h16.8L339.7,576.5L339.7,576.5z M335.1,546.2h1c2.1,0,3.7,0.6,4.8,1.7c1.1,1.1,1.6,2.9,1.6,5.4s-0.5,4.3-1.6,5.5s-2.6,1.8-4.6,1.8
			c-0.3,0-0.7,0-1.2,0L335.1,546.2L335.1,546.2z"/>
		<path class="st0" d="M363.5,575.2c-0.1-0.3-0.2-0.9-0.2-1.8V572v-5.2c0-1.9,0.3-3.6,0.8-5.2c0.3-1,0.8-1.8,1.5-2.4
			c0.4-0.4,0.9-0.5,1.3-0.5c0.2,0,0.4,0,0.6,0.1c0.1,0.1,0.5,0.4,1.1,0.9c0.6,0.6,1.4,0.8,2.2,0.8c0.7,0,1.4-0.3,1.9-0.9
			c0.5-0.6,0.8-1.4,0.8-2.5c0-1-0.3-1.8-0.8-2.4c-0.5-0.6-1.3-0.8-2.2-0.8c-1.1,0-2.2,0.4-3.3,1.2c-1.1,0.8-2.5,2.3-4,4.7v-5.2h-9.3
			v0.9c0.8,0.1,1.3,0.2,1.6,0.4s0.5,0.5,0.7,1c0.1,0.4,0.2,1.2,0.2,2.5V572c0,2-0.2,3.2-0.5,3.7c-0.4,0.5-1,0.7-2,0.8v0.9h12.4v-0.8
			c-0.9,0-1.6-0.2-1.9-0.4C364,576,363.7,575.6,363.5,575.2z"/>
		<path class="st0" d="M384.2,550c0.7-0.7,1.1-1.6,1.1-2.7c0-1-0.4-1.9-1.1-2.7c-0.7-0.7-1.6-1.1-2.7-1.1c-1,0-1.9,0.4-2.7,1.1
			c-0.7,0.7-1.1,1.6-1.1,2.7c0,1,0.4,1.9,1.1,2.7s1.6,1.1,2.7,1.1C382.5,551.1,383.4,550.7,384.2,550z"/>
		<path class="st0" d="M377.6,575.7c-0.5,0.6-1.2,0.8-2.2,0.9v0.9h12.3v-0.9c-1.1-0.1-1.8-0.3-2.2-0.8c-0.4-0.4-0.6-1.5-0.6-3.1
			v-18.1h-9.6v0.9c1.1,0.1,1.8,0.3,2.2,0.8c0.4,0.4,0.6,1.5,0.6,3.1v13.3C378.1,574.3,377.9,575.3,377.6,575.7z"/>
		<path class="st0" d="M411,556.3c0.5-0.4,1-0.7,1.8-0.8v-0.9h-7.5v0.9c0.9,0,1.6,0.2,1.9,0.5c0.4,0.3,0.5,0.7,0.5,1.2
			c0,0.9-0.4,2.4-1.3,4.5l-3,7.4l-3.8-8.6c-0.7-1.7-1.1-2.8-1.1-3.4c0-0.5,0.2-0.9,0.6-1.3c0.3-0.3,0.8-0.4,1.6-0.4v-0.8h-12.1v0.9
			c0.7,0.1,1.3,0.4,1.7,0.9c0.5,0.6,1.2,1.9,2.2,4.1l7.7,17.7h1.1l7.6-17.9C409.9,558,410.6,556.8,411,556.3z"/>
		<path class="st0" d="M436.6,573.7c-0.4,0.6-0.9,0.9-1.3,0.9c-0.2,0-0.4-0.1-0.6-0.2c-0.2-0.1-0.3-0.3-0.4-0.6s-0.1-0.9-0.1-2v-8.9
			c0-2.5-0.1-4-0.3-4.7c-0.4-1.1-1.2-2.1-2.5-3s-3-1.4-5.1-1.4c-1.8,0-3.5,0.3-5.2,0.9c-1.7,0.6-3,1.4-3.9,2.5s-1.4,2.2-1.4,3.4
			c0,0.8,0.3,1.6,1,2.2c0.7,0.6,1.5,0.9,2.6,0.9c1,0,1.7-0.3,2.3-0.8c0.6-0.6,0.9-1.2,0.9-2c0-0.7-0.3-1.3-0.9-2
			c-0.5-0.5-0.7-0.9-0.7-1.3c0-0.4,0.2-0.7,0.6-1c0.7-0.5,1.6-0.7,2.6-0.7c0.7,0,1.2,0.2,1.8,0.5c0.5,0.3,0.9,0.7,1.1,1.2
			c0.2,0.4,0.3,1.5,0.3,3.3v2.3c-5,2.3-8.3,4.2-9.8,5.6c-1.5,1.4-2.2,3-2.2,4.7c0,1.3,0.4,2.4,1.3,3.2c0.9,0.9,1.9,1.3,3.2,1.3
			c2.2,0,4.7-1.2,7.5-3.7c0.2,1.2,0.6,2.2,1.3,2.8s1.7,0.9,3.1,0.9c1.1,0,2.1-0.3,3-0.8s1.7-1.4,2.5-2.6L436.6,573.7z M427.5,572.3
			c-1.1,0.9-2,1.4-2.8,1.4c-0.7,0-1.3-0.2-1.7-0.7c-0.5-0.6-0.8-1.2-0.8-2c0-0.9,0.3-1.8,1-2.7c1-1.3,2.4-2.6,4.4-3.7v7.7H427.5z"/>
		<path class="st0" d="M464.9,576.2v-0.8c-0.9-0.1-1.5-0.2-1.9-0.5s-0.6-0.7-0.7-1.2c-0.1-0.3-0.1-1.4-0.1-3.1v-26.3h-10.1v1
			c1.1,0,1.8,0.1,2.2,0.3s0.7,0.6,0.9,1c0.1,0.4,0.2,1.4,0.2,3.1v6.9c-1-1.1-1.9-1.8-2.7-2.2s-1.8-0.6-2.9-0.6
			c-1.7,0-3.3,0.5-4.7,1.5c-1.5,1-2.6,2.5-3.5,4.4c-0.8,1.9-1.3,4.1-1.3,6.6c0,3.1,0.7,5.7,2.1,7.8c1.7,2.6,4,3.9,6.9,3.9
			c1.1,0,2.2-0.3,3.1-0.8s1.9-1.5,3.1-2.9v3.6L464.9,576.2z M451.2,575.2c-0.7,0-1.2-0.2-1.5-0.5c-0.7-0.6-1.3-1.6-1.7-3
			s-0.6-3.5-0.6-6.4c0-2.6,0.2-4.6,0.6-5.8c0.4-1.3,0.9-2.2,1.5-2.7c0.4-0.3,0.9-0.5,1.5-0.5c1.7,0,3.2,1.2,4.4,3.5v12
			C454,574.1,452.6,575.2,451.2,575.2z"/>
		<path class="st0" d="M481.6,576.8c0.7,0.6,1.7,0.9,3.1,0.9c1.1,0,2.1-0.3,3-0.8s1.7-1.4,2.5-2.6l-0.7-0.6
			c-0.4,0.6-0.9,0.9-1.3,0.9c-0.2,0-0.4-0.1-0.6-0.2c-0.2-0.1-0.3-0.3-0.4-0.6s-0.1-0.9-0.1-2v-8.9c0-2.5-0.1-4-0.3-4.7
			c-0.4-1.1-1.2-2.1-2.5-3s-3-1.4-5.1-1.4c-1.8,0-3.5,0.3-5.2,0.9c-1.7,0.6-3,1.4-3.9,2.5s-1.4,2.2-1.4,3.4c0,0.8,0.3,1.6,1,2.2
			c0.7,0.6,1.5,0.9,2.6,0.9c1,0,1.7-0.3,2.3-0.8c0.6-0.6,0.9-1.2,0.9-2c0-0.7-0.3-1.3-0.9-2c-0.5-0.5-0.7-0.9-0.7-1.3
			c0-0.4,0.2-0.7,0.6-1c0.7-0.5,1.6-0.7,2.6-0.7c0.7,0,1.2,0.2,1.8,0.5c0.5,0.3,0.9,0.7,1.1,1.2c0.2,0.4,0.3,1.5,0.3,3.3v2.3
			c-5,2.3-8.3,4.2-9.8,5.6c-1.5,1.4-2.2,3-2.2,4.7c0,1.3,0.4,2.4,1.3,3.2c0.9,0.9,1.9,1.3,3.2,1.3c2.2,0,4.7-1.2,7.5-3.7
			C480.5,575.3,480.9,576.2,481.6,576.8z M475.8,573c-0.5-0.6-0.8-1.2-0.8-2c0-0.9,0.3-1.8,1-2.7c1-1.3,2.4-2.6,4.4-3.7v7.6
			c-1.1,0.9-2,1.4-2.8,1.4C476.7,573.6,476.2,573.4,475.8,573z"/>
		<path class="st0" d="M25.5,597.8c-2.5-1.1-5.8-1.7-9.9-1.7H0.2v0.9h1.1c1,0,1.7,0.2,2.3,0.5s0.9,0.7,1.1,1.2S5,600.2,5,602v22.6
			c0,1.8-0.1,2.8-0.2,3.2c-0.3,0.5-0.6,1-1.2,1.3s-1.3,0.5-2.3,0.5H0.2v0.9h15.4c2.2,0,3.8-0.1,4.9-0.3c2.3-0.4,4.3-1.1,5.9-1.9
			s3-1.9,4.3-3.2c1.3-1.3,2.2-3,3-5.1s1.2-4.3,1.2-6.7c0-3.5-0.8-6.6-2.4-9.4S28.6,599.2,25.5,597.8z M22.7,625.8
			c-1.5,1.9-3.6,2.9-6.5,2.9c-0.9,0-1.5-0.1-2-0.4c-0.3-0.2-0.5-0.4-0.7-0.7s-0.2-1.2-0.2-2.6v-26.9c2.8,0,4.8,0.2,6.1,0.8
			c1.7,0.7,3.1,2.1,4.2,4.2c1.4,2.6,2.1,6.2,2.1,10.6C25.7,619.2,24.7,623.2,22.7,625.8z"/>
		<path class="st0" d="M71.2,626l-8.3-11.7c2.1-0.5,3.7-1.3,4.9-2.4c1.8-1.7,2.7-3.8,2.7-6.3c0-2.1-0.6-3.9-1.8-5.4
			s-2.8-2.6-4.7-3.2s-5-0.9-9.1-0.9h-16v0.9c1.6,0,2.6,0.1,3.2,0.4s1,0.7,1.2,1.2s0.3,1.7,0.3,3.5v22.5c0,1.9-0.1,3-0.3,3.5
			s-0.6,0.9-1.2,1.2s-1.6,0.4-3.2,0.4v0.9h17.6v-0.9c-1.6,0-2.6-0.1-3.2-0.4s-1-0.7-1.2-1.2s-0.3-1.7-0.3-3.5V615h2.3l11.1,15.7H76
			v-0.9c-0.9-0.1-1.7-0.3-2.4-0.9C73,628.4,72.3,627.5,71.2,626z M61.2,610.1c-0.7,1.1-1.6,1.9-2.8,2.3s-2.9,0.6-5.3,0.6h-1.4v-15.1
			h2.7c2.7,0,4.7,0.6,5.9,1.9s1.8,3.2,1.8,5.8C62.2,607.5,61.9,609,61.2,610.1z"/>
		<path class="st0" d="M82.8,622.8c-1.2,0-2.2,0.4-3,1.2s-1.2,1.8-1.2,3s0.4,2.2,1.2,3s1.8,1.2,3,1.2s2.2-0.4,3-1.2s1.2-1.8,1.2-3
			s-0.4-2.2-1.2-3S84,622.8,82.8,622.8z"/>
		<path class="st0" d="M137.2,626l-8.3-11.7c2.1-0.5,3.7-1.3,4.9-2.4c1.8-1.7,2.7-3.8,2.7-6.3c0-2.1-0.6-3.9-1.8-5.4
			s-2.8-2.6-4.7-3.2s-5-0.9-9.1-0.9h-16v0.9c1.6,0,2.6,0.1,3.2,0.4s1,0.7,1.2,1.2s0.3,1.7,0.3,3.5v22.5c0,1.9-0.1,3-0.3,3.5
			s-0.6,0.9-1.2,1.2s-1.6,0.4-3.2,0.4v0.9h17.6v-0.9c-1.6,0-2.6-0.1-3.2-0.4s-1-0.7-1.2-1.2s-0.3-1.7-0.3-3.5V615h2.3l11.1,15.7H142
			v-0.9c-0.9-0.1-1.7-0.3-2.4-0.9C139.1,628.4,138.3,627.5,137.2,626z M127.2,610.1c-0.7,1.1-1.6,1.9-2.8,2.3s-2.9,0.6-5.3,0.6h-1.4
			v-15.1h2.7c2.7,0,4.7,0.6,5.9,1.9s1.8,3.2,1.8,5.8C128.2,607.5,127.9,609,127.2,610.1z"/>
		<path class="st0" d="M173.9,623.7l-12.4-28.2H161L148.7,623c-1.2,2.6-2.1,4.4-2.9,5.2s-1.8,1.3-3,1.5v0.9h11.5v-0.9
			c-1.8-0.1-2.9-0.3-3.4-0.6c-0.8-0.5-1.2-1.2-1.2-2.1c0-0.7,0.2-1.7,0.7-2.8l1.4-3.4H164l1.8,4.3c0.5,1.1,0.7,1.8,0.8,1.9
			c0.1,0.3,0.2,0.6,0.2,0.9c0,0.5-0.2,0.9-0.6,1.2c-0.5,0.4-1.5,0.6-2.8,0.6h-0.7v0.9h16.6v-0.9c-1-0.1-1.9-0.4-2.4-0.9
			C176.1,628,175.1,626.4,173.9,623.7z M152.7,618.9L158,607l5.1,11.9H152.7z"/>
		<path class="st0" d="M198.2,598.1c2.7,0,4.6,0.1,5.6,0.4c1.8,0.5,3.3,1.2,4.2,2.4s1.6,2.8,1.8,5.2h1v-9.9h-29v0.9h1.1
			c1,0,1.7,0.2,2.3,0.5s0.9,0.7,1.1,1.2s0.3,1.5,0.3,3.3v22.6c0,1.7-0.1,2.8-0.3,3.2c-0.2,0.6-0.6,1-1,1.2c-0.6,0.4-1.4,0.5-2.4,0.5
			h-1.1v0.9h18v-0.9h-1.1c-1,0-1.7-0.2-2.3-0.5s-0.9-0.7-1.1-1.2s-0.3-1.5-0.3-3.3v-10.5h1c1.8,0,3.4,0.5,4.9,1.6s2.3,3.2,2.6,6.5
			h0.9v-17.3h-0.9c-0.2,1.8-0.6,3.3-1.3,4.4s-1.5,1.9-2.5,2.3s-2.2,0.7-3.7,0.7h-1v-14.1h3.2V598.1L198.2,598.1z"/>
		<path class="st0" d="M241.1,623.7l-12.4-28.2h-0.5L215.9,623c-1.2,2.6-2.1,4.4-2.9,5.2s-1.8,1.3-3,1.5v0.9h11.3v-0.9
			c-1.8-0.1-2.9-0.3-3.4-0.6c-0.8-0.5-1.2-1.2-1.2-2.1c0-0.7,0.2-1.7,0.7-2.8l1.4-3.4H231l1.8,4.3c0.5,1.1,0.7,1.8,0.8,1.9
			c0.1,0.3,0.2,0.6,0.2,0.9c0,0.5-0.2,0.9-0.6,1.2c-0.5,0.4-1.5,0.6-2.8,0.6h-0.7v0.9h16.7v-0.9c-1-0.1-1.9-0.4-2.4-0.9
			C243.2,628,242.2,626.4,241.1,623.7z M219.8,618.9l5.3-11.9l5.1,11.9H219.8z"/>
		<path class="st0" d="M275.1,626.5c-1.9,1.5-4.5,2.2-7.7,2.2h-2.1c-1,0-1.7-0.1-2.1-0.4c-0.4-0.3-0.7-0.6-0.9-1
			c-0.2-0.4-0.2-1.6-0.2-3.5v-9.7c1.6,0,2.9,0.2,3.8,0.6c0.9,0.4,1.6,1.3,2.3,2.5c0.7,1.2,1.1,2.9,1.3,4.8h1v-18h-1
			c-0.3,2.7-0.9,4.7-1.9,6.1s-2.6,2.1-4.7,2.1h-0.7v-14h3.6c2.6,0,4.4,0.2,5.3,0.5c1.6,0.5,2.9,1.3,3.8,2.4c0.9,1.1,1.6,2.9,2.1,5.4
			h1v-10.2h-28.8v0.9h1.1c1.1,0,2,0.2,2.6,0.7c0.5,0.3,0.8,0.8,0.9,1.4c0.1,0.4,0.1,1.3,0.1,2.9v22.6c0,1.7-0.1,2.8-0.3,3.2
			c-0.2,0.6-0.6,1-1,1.2c-0.6,0.4-1.4,0.5-2.4,0.5h-1.1v0.9h29.8l1.5-10.9h-0.9C278.4,622.7,277,625,275.1,626.5z"/>
		<path class="st0" d="M312.6,624.7c-0.9,1.4-1.9,2.4-3.2,3c-1.3,0.6-2.7,1-4.6,1h-2.9c-1.6,0-2.6-0.1-3.1-0.2
			c-0.6-0.2-1-0.6-1.2-1.1s-0.3-1.6-0.3-3.4v-21.9c0-1.7,0.1-2.8,0.3-3.2c0.3-0.6,0.6-1,1-1.2c0.6-0.4,1.4-0.5,2.4-0.5h1.5v-0.9
			h-18.2v0.9h1.1c1,0,1.7,0.2,2.3,0.5s0.9,0.7,1.1,1.2s0.3,1.5,0.3,3.3v22.6c0,1.7-0.1,2.8-0.3,3.2c-0.2,0.6-0.6,1-1,1.2
			c-0.6,0.4-1.4,0.5-2.4,0.5h-1.1v0.9h30.6l1.3-12.1h-1C314.3,621.2,313.5,623.3,312.6,624.7z"/>
		<path class="st0" d="M359.8,615.1c-1.3-1.1-3.6-2-6.9-2.8c3-0.8,5.1-1.8,6.3-3.1c1.2-1.3,1.8-2.8,1.8-4.4c0-1.6-0.5-3.1-1.4-4.5
			s-2.2-2.4-3.9-3.1c-1.7-0.7-4.4-1.1-8.4-1.1h-16.5v0.9c1.6,0,2.6,0.1,3.2,0.4c0.6,0.3,1,0.7,1.2,1.2s0.3,1.7,0.3,3.5v22.5
			c0,1.9-0.1,3-0.3,3.5c-0.2,0.5-0.6,0.9-1.2,1.2s-1.6,0.4-3.2,0.4v0.9h17.5c4.9,0,8.6-1,11.1-3.1c2.1-1.7,3.1-3.8,3.1-6.4
			C362.7,618.6,361.7,616.6,359.8,615.1z M343.7,598.1c2.5,0,4.3,0.2,5.4,0.7s2,1.2,2.6,2.2s0.9,2.2,0.9,3.7s-0.3,2.8-0.9,3.8
			s-1.5,1.7-2.6,2.3s-2.9,0.8-5.3,0.8L343.7,598.1L343.7,598.1z M352.8,625.2c-0.6,1.1-1.5,2-2.6,2.6s-2.4,0.9-3.7,0.9
			c-0.9,0-1.6-0.2-2.1-0.7s-0.7-1.2-0.7-2.1v-1.3v-11c2.6,0,4.5,0.2,5.8,0.7s2.3,1.4,3.1,2.7c0.8,1.3,1.1,2.7,1.1,4.3
			C353.7,622.8,353.4,624.1,352.8,625.2z"/>
		<path class="st0" d="M392.6,626.5c-1.9,1.5-4.5,2.2-7.7,2.2h-2.1c-1,0-1.7-0.1-2.1-0.4c-0.4-0.3-0.7-0.6-0.9-1
			c-0.2-0.4-0.2-1.6-0.2-3.5v-9.7c1.6,0,2.9,0.2,3.8,0.6c0.9,0.4,1.6,1.3,2.3,2.5c0.7,1.2,1.1,2.9,1.3,4.8h1v-18h-1
			c-0.3,2.7-0.9,4.7-1.9,6.1s-2.6,2.1-4.7,2.1h-0.7v-14h3.6c2.6,0,4.4,0.2,5.3,0.5c1.6,0.5,2.9,1.3,3.8,2.4c0.9,1.1,1.6,2.9,2.1,5.4
			h1v-10.2h-28.8v0.9h1.1c1.1,0,2,0.2,2.6,0.7c0.5,0.3,0.8,0.8,0.9,1.4c0.1,0.4,0.1,1.3,0.1,2.9v22.6c0,1.7-0.1,2.8-0.3,3.2
			c-0.2,0.6-0.6,1-1,1.2c-0.6,0.4-1.4,0.5-2.4,0.5h-1.1v0.9h29.8l1.5-10.9H397C395.9,622.7,394.5,625,392.6,626.5z"/>
		<path class="st0" d="M430.1,624.7c-0.9,1.4-1.9,2.4-3.2,3s-2.7,1-4.6,1h-2.9c-1.6,0-2.6-0.1-3.1-0.2c-0.6-0.2-1-0.6-1.2-1.1
			s-0.3-1.6-0.3-3.4v-21.9c0-1.7,0.1-2.8,0.3-3.2c0.3-0.6,0.6-1,1-1.2c0.6-0.4,1.4-0.5,2.4-0.5h1.5v-0.9h-18.4v0.9h1.1
			c1,0,1.7,0.2,2.3,0.5s0.9,0.7,1.1,1.2s0.3,1.5,0.3,3.3v22.6c0,1.7-0.1,2.8-0.3,3.2c-0.2,0.6-0.6,1-1,1.2c-0.6,0.4-1.4,0.5-2.4,0.5
			h-1.1v0.9h30.6l1.3-12.1h-1C431.9,621.2,431,623.3,430.1,624.7z"/>
		<path class="st0" d="M465.6,624.7c-0.9,1.4-1.9,2.4-3.2,3s-2.7,1-4.6,1h-2.9c-1.6,0-2.6-0.1-3.1-0.2c-0.6-0.2-1-0.6-1.2-1.1
			s-0.3-1.6-0.3-3.4v-21.9c0-1.7,0.1-2.8,0.3-3.2c0.3-0.6,0.6-1,1-1.2c0.6-0.4,1.4-0.5,2.4-0.5h1.5v-0.9h-18.2v0.9h1.1
			c1,0,1.7,0.2,2.3,0.5s0.9,0.7,1.1,1.2s0.3,1.5,0.3,3.3v22.6c0,1.7-0.1,2.8-0.3,3.2c-0.2,0.6-0.6,1-1,1.2c-0.6,0.4-1.4,0.5-2.4,0.5
			h-1.1v0.9h30.6l1.3-12.1h-1C467.4,621.2,466.5,623.3,465.6,624.7z"/>
		<path class="st0" d="M492,595.7c-5.1-0.2-9.4,1.4-12.8,4.8s-5.2,7.7-5.2,12.8c0,4.6,1.3,8.5,4,11.8c3.4,4.2,8.2,6.3,14.4,6.3
			s11-2.2,14.3-6.6c2.6-3.3,3.8-7.2,3.8-11.5c0-5.1-1.7-9.4-5.1-12.8C501.9,597.1,497.5,595.5,492,595.7z M500.1,623
			c-0.8,2.4-2,4.1-3.5,5.2c-1.2,0.8-2.6,1.3-4.4,1.3c-2.6,0-4.6-1-6-2.9c-2.1-2.8-3.1-7.2-3.1-13c0-4.9,0.7-8.7,2-11.4
			c1.6-3.2,4-4.8,7.2-4.8c1.7,0,3.2,0.5,4.5,1.4s2.4,2.5,3.2,4.8s1.3,5.7,1.3,10.2C501.3,617.5,500.9,620.6,500.1,623z"/>
		<path class="st0" d="M529.8,609.2c-2.9-1.4-4.7-2.4-5.5-3c-1.1-0.8-1.9-1.6-2.4-2.4c-0.4-0.6-0.5-1.3-0.5-2c0-1.2,0.5-2.3,1.5-3.2
			s2.4-1.4,4.1-1.4c2.2,0,4.3,0.9,6.2,2.6s3.1,4.1,3.6,6.9h1l-0.3-11.5h-0.8c-0.2,1-0.5,1.7-0.7,2s-0.6,0.4-1,0.4
			c-0.5,0-1.3-0.3-2.4-0.8s-2.1-0.9-2.9-1.1c-1-0.3-2.1-0.4-3.2-0.4c-3.1,0-5.6,1-7.6,2.9s-3,4.3-3,7c0,1.6,0.4,3.1,1.1,4.4
			s1.8,2.5,3.2,3.6s3.6,2.4,6.8,3.9c2.2,1.1,3.8,2,4.7,2.7s1.5,1.4,2,2.2s0.6,1.5,0.6,2.4c0,1.4-0.6,2.6-1.7,3.6s-2.6,1.5-4.5,1.5
			c-2.5,0-4.7-1-6.9-2.9s-3.6-4.7-4.3-8.4H516v13h0.9c0.3-0.7,0.7-1.2,1.2-1.5s1-0.5,1.4-0.5c0.5,0,1.2,0.2,2,0.5
			c1.5,0.6,2.7,1,3.6,1.2s2,0.3,3.1,0.3c3.5,0,6.3-1,8.5-3.1s3.4-4.5,3.4-7.4c0-2.3-0.7-4.3-2.1-6
			C536.5,613.1,533.8,611.2,529.8,609.2z"/>
		<path class="st0" d="M563,595.7c-5.1-0.2-9.4,1.4-12.8,4.8s-5.2,7.7-5.2,12.8c0,4.6,1.3,8.5,4,11.8c3.4,4.2,8.2,6.3,14.4,6.3
			s11-2.2,14.3-6.6c2.6-3.3,3.8-7.2,3.8-11.5c0-5.1-1.7-9.4-5.1-12.8S568.5,595.5,563,595.7z M571.1,623c-0.8,2.4-2,4.1-3.5,5.2
			c-1.2,0.8-2.6,1.3-4.4,1.3c-2.6,0-4.6-1-6-2.9c-2.1-2.8-3.1-7.2-3.1-13c0-4.9,0.7-8.7,2-11.4c1.6-3.2,4-4.8,7.2-4.8
			c1.7,0,3.2,0.5,4.5,1.4s2.4,2.5,3.2,4.8s1.3,5.7,1.3,10.2C572.3,617.5,571.9,620.6,571.1,623z"/>
		<path class="st0" d="M631,597.3c-0.4,0.4-0.9,0.6-1.4,0.6c-0.4,0-1.4-0.3-3-0.9c-2.7-1-5.2-1.6-7.7-1.6c-3.3,0-6.4,0.8-9.3,2.4
			s-5.2,3.9-7,6.9s-2.6,6.1-2.6,9.3c0,3.1,0.8,6.1,2.3,8.8s3.7,4.9,6.6,6.3s6.1,2.2,9.8,2.2c2.8,0,5.2-0.5,7.3-1.4s4.1-2.4,6-4.4v-3
			c-2,2.3-3.9,4-5.7,4.9s-3.8,1.4-6,1.4c-2.6,0-4.8-0.6-6.4-1.9s-2.9-3.2-3.7-5.7s-1.2-5.3-1.2-8.4c0-3.1,0.5-6,1.6-8.5
			c0.8-2,2.1-3.6,3.9-4.8s3.8-1.9,5.9-1.9c2.6,0,4.9,0.8,6.9,2.5s3.4,4,4.2,7.2h1v-11.9h-1C631.6,596.2,631.4,596.9,631,597.3z"/>
		<path class="st0" d="M657.9,597.1h1.1c1,0,1.7,0.2,2.3,0.5s1,0.7,1.1,1.2s0.3,1.5,0.3,3.3v9.8h-12.2v-9.8c0-1.7,0.1-2.8,0.3-3.2
			c0.3-0.6,0.6-1,1-1.2c0.6-0.4,1.4-0.5,2.4-0.5h1.1v-0.9h-18v0.9h1.1c1,0,1.7,0.2,2.3,0.5s0.9,0.7,1.1,1.2s0.3,1.5,0.3,3.3v22.6
			c0,1.7-0.1,2.8-0.3,3.2c-0.2,0.6-0.6,1-1,1.2c-0.6,0.4-1.4,0.5-2.4,0.5h-1.1v0.9h18v-0.9h-1.1c-1,0-1.7-0.2-2.3-0.5
			s-0.9-0.7-1.1-1.2s-0.3-1.5-0.3-3.3V614h12.2v10.7c0,1.7-0.1,2.8-0.3,3.2c-0.3,0.6-0.6,1-1,1.2c-0.6,0.4-1.4,0.5-2.4,0.5h-1.1v0.9
			h18v-0.9h-1.1c-1,0-1.7-0.2-2.3-0.5s-1-0.7-1.1-1.2s-0.3-1.5-0.3-3.3V602c0-1.7,0.1-2.8,0.3-3.2c0.3-0.6,0.6-1,1-1.2
			c0.6-0.4,1.4-0.5,2.4-0.5h1.1v-0.9h-18V597.1L657.9,597.1z"/>
		<path class="st0" d="M709.3,623.7l-12.4-28.2h-0.5L684.1,623c-1.2,2.6-2.1,4.4-2.9,5.2s-1.8,1.3-3,1.5v0.9h11.5v-0.9
			c-1.8-0.1-2.9-0.3-3.4-0.6c-0.8-0.5-1.2-1.2-1.2-2.1c0-0.7,0.2-1.7,0.7-2.8l1.4-3.4h12.1l1.8,4.3c0.5,1.1,0.7,1.8,0.8,1.9
			c0.1,0.3,0.2,0.6,0.2,0.9c0,0.5-0.2,0.9-0.6,1.2c-0.5,0.4-1.5,0.6-2.8,0.6H698v0.9h16.7v-0.9c-1-0.1-1.9-0.4-2.4-0.9
			C711.5,628,710.5,626.4,709.3,623.7z M688.1,618.9l5.3-11.9l5.1,11.9H688.1z"/>
		<path class="st0" d="M749,597.3c-0.4,0.4-0.9,0.6-1.4,0.6c-0.4,0-1.4-0.3-3-0.9c-2.7-1-5.2-1.6-7.7-1.6c-3.3,0-6.4,0.8-9.3,2.4
			s-5.2,3.9-7,6.9s-2.6,6.1-2.6,9.3c0,3.1,0.8,6.1,2.3,8.8s3.7,4.9,6.6,6.3s6.1,2.2,9.8,2.2c2.8,0,5.2-0.5,7.3-1.4s4.1-2.4,6-4.4v-3
			c-2,2.3-3.9,4-5.7,4.9s-3.8,1.4-6,1.4c-2.6,0-4.8-0.6-6.4-1.9s-2.9-3.2-3.7-5.7s-1.2-5.3-1.2-8.4c0-3.1,0.5-6,1.6-8.5
			c0.8-2,2.1-3.6,3.9-4.8s3.8-1.9,5.9-1.9c2.6,0,4.9,0.8,6.9,2.5s3.4,4,4.2,7.2h1v-11.9h-1C749.7,596.2,749.4,596.9,749,597.3z"/>
		<polygon class="st0" points="763.8,593.2 772.2,584.4 764.5,584.4 761.6,593.2 		"/>
		<path class="st0" d="M755.5,597.1h1.1c1,0,1.7,0.2,2.3,0.5s0.9,0.7,1.1,1.2s0.3,1.5,0.3,3.3v22.6c0,1.7-0.1,2.8-0.3,3.2
			c-0.2,0.6-0.6,1-1,1.2c-0.6,0.4-1.4,0.5-2.4,0.5h-1.1v0.9h18v-0.9h-1.1c-1,0-1.7-0.2-2.3-0.5s-0.9-0.7-1.1-1.2s-0.3-1.5-0.3-3.3
			V602c0-1.7,0.1-2.8,0.3-3.2c0.3-0.6,0.6-1,1-1.2c0.6-0.4,1.4-0.5,2.4-0.5h1.1v-0.9h-18V597.1z"/>
		<path class="st0" d="M800.5,596.2v0.9c1.9,0,3.3,0.4,4.1,1.4c0.6,0.7,0.9,2.1,0.9,4.2v14.8l-17-21.4h-12.2v0.9
			c1,0,1.9,0.2,2.4,0.5s1.2,0.9,1.9,1.8l0.7,0.9v24.4c0,1.8-0.4,3.1-1.1,3.9s-2.1,1.2-4,1.2v0.9h12.2v-0.9h-0.8
			c-1.2,0-2.2-0.3-3.1-1s-1.4-2-1.4-4v-21.9l23.3,28.7h0.9v-28.7c0-1.6,0.1-2.8,0.4-3.4s0.7-1.2,1.2-1.4s1.5-0.5,2.9-0.7v-0.9h-11.3
			L800.5,596.2L800.5,596.2z"/>
		<path class="st0" d="M19.4,274.6c-0.1,0-0.2,0-0.2,0H19.4L19.4,274.6z"/>
		<path class="st0" d="M211,256.7c3.9,10.9,8.8,21.4,14.6,31.3h23.1h46.4h36.1h55.4h5.4h55.4h36.1h46.4h27.2
			c5.8-9.9,10.7-20.4,14.6-31.3c0.3-0.4,0.6-1,0.6-1.5c7-19.9,10.8-41.2,10.8-63.5c0-105.6-85.4-191.3-191-191.7l0,0H392h-0.2h-0.5
			c-1,0-2,0-3,0c-0.3,0-0.6,0-0.9,0c-0.2,0-0.3,0-0.5,0h-0.2h-0.1v0.1c-103.7,2.5-187,87.3-187,191.6c0,22.3,3.8,43.6,10.8,63.5
			C210.4,255.7,210.6,256.2,211,256.7z M423.3,212.8l-13.4,13.4V284H395v-72.2l14.2-14.2l14.2,14.2v1H423.3z M428.3,283h-2v-25.4h2
			V283z M428.3,252.6h-2v-26.8h2V252.6z M428.3,220.8h-2v-10.1L409.6,194h18.7L428.3,220.8L428.3,220.8z M459.6,185.8l-13.4,13.4
			V284h-14.9v-99.1l14.2-14.2l14.2,14.2v0.9L459.6,185.8L459.6,185.8z M500.1,220.8c1-8.8,1.5-17.7,1.6-26.8h40.5
			c-0.1,9.2-0.5,18.2-1.3,26.8H500.1z M540.4,225.8c-1.1,9.3-2.6,18.2-4.5,26.8h-37.6v-18.2c0.5-2.9,0.9-5.7,1.3-8.6H540.4
			L540.4,225.8z M501.7,188.9c-0.1-9.2-0.7-18.2-1.7-26.8h40.1c1.3,8.8,2,17.7,2.1,26.8H501.7z M499.4,157.1
			c-1.3-9.3-3.1-18.2-5.3-26.8h38.6c2.9,8.7,5.1,17.7,6.6,26.8H499.4z M492.7,125.3c-2.6-9.4-5.8-18.4-9.3-26.8h35.4
			c2.3,4.1,4.4,8.4,6.4,12.7c2.1,4.6,4,9.3,5.7,14.1L492.7,125.3L492.7,125.3z M481.3,93.5c-4.3-9.6-9-18.6-14.1-26.8h29.7
			c7.2,8.4,13.6,17.4,19.1,26.8H481.3z M464,61.7c-6.6-10.1-13.7-19.1-20.8-26.8h19.4c7.2,5.3,14.4,11.2,21.4,18
			c3,2.9,5.8,5.8,8.6,8.8H464z M453.5,55.4c1.5,2.1,3,4.2,4.4,6.3h-28.5c-3.9-10-7.9-19-12-26.8h18.8
			C442.1,40.8,447.9,47.7,453.5,55.4z M461.2,66.7c5.4,8.5,10.3,17.5,14.6,26.8h-35.9c-2.6-9.5-5.5-18.5-8.6-26.8H461.2L461.2,66.7z
			 M478,98.5c2.2,5.1,4.2,10.4,6,15.7c1.3,3.7,2.4,7.4,3.5,11.1h-40.4c-1.7-9.3-3.7-18.3-5.9-26.8H478L478,98.5z M488.9,130.3
			c2.3,8.8,4.1,17.7,5.4,26.8h-42.8c-0.9-9.2-2.1-18.1-3.5-26.8H488.9z M463.9,283h-1.3v-25.4h1.3V283z M463.9,252.6h-1.3v-26.8h1.3
			V252.6z M463.9,220.8h-1.3V194h18l-16.7,16.7V220.8z M495.3,212.8l-13.4,13.4V284H467v-72.2l14.2-14.2l14.2,14.2L495.3,212.8
			L495.3,212.8z M496.2,208.6L481.6,194h15.2C496.7,198.8,496.5,203.7,496.2,208.6z M462.6,188.9v-5.3l-9.9-9.9
			c-0.2-3.9-0.4-7.8-0.7-11.6h43c1.1,8.8,1.6,17.8,1.7,26.8H462.6z M526.5,283h-28.2v-25.4h36.4C532.4,266.4,529.7,274.9,526.5,283z
			 M554.1,283h-22.3c3.1-8,5.7-16.5,7.9-25.4h26.2C562.6,266.3,558.7,274.8,554.1,283z M567.7,252.6h-26.8
			c1.9-8.5,3.4-17.5,4.5-26.8h29.4C573.1,234.9,570.7,243.8,567.7,252.6z M575.7,220.8h-29.8c0.8-8.6,1.3-17.6,1.3-26.8h30.7
			C577.8,203,577.1,211.9,575.7,220.8z M577.9,188.9h-30.7c-0.1-9.3-0.8-18.2-2-26.8h30.4C577,170.9,577.8,179.9,577.9,188.9z
			 M574.8,157.1h-30.4c-1.6-9.3-3.8-18.3-6.5-26.8h29.7C570.7,139,573.1,148,574.8,157.1z M565.9,125.3h-29.6
			c-3.3-9.5-7.3-18.4-11.7-26.8h28.6C558.1,107.1,562.4,116.1,565.9,125.3z M530,66.7c7.6,8.4,14.3,17.4,20.2,26.8h-28.4
			c-5.5-9.7-11.7-18.6-18.4-26.8H530L530,66.7z M523.5,59.9c0.6,0.6,1.2,1.2,1.8,1.8h-26.1c-8.9-10.2-18.5-19.1-28.4-26.8h21.9
			C503.7,42,514,50.4,523.5,59.9z M484.6,29.9h-20.5c-13.7-9.8-27.7-17.2-40.9-22.2C444.9,11.4,465.6,18.9,484.6,29.9z M455.3,29.9
			h-17c-8.5-8.5-17-15.3-25-20.3C426.3,13.6,440.7,20.3,455.3,29.9z M431.1,29.9h-16.4c-5.2-9.3-10.4-16.7-15.2-21.8
			C408.7,11.8,419.8,19.2,431.1,29.9z M392,7.8c2.5,2,5.6,5.3,9.3,10.3c2.5,3.5,5.1,7.4,7.6,11.7H392V7.8z M392,34.9h19.8
			c3.8,7,7.5,14.8,10.9,23.3c0.5,1.1,0.9,2.3,1.4,3.5H392V34.9L392,34.9z M392,66.7h34c2.8,7.4,5.8,16.4,8.7,26.8H392V66.7z
			 M392,98.5h44.1c2.2,8.2,4.2,17.2,6,26.8H392V98.5L392,98.5z M392,130.3h51c1.4,8.5,2.7,17.4,3.6,26.8h-54.5L392,130.3L392,130.3z
			 M392,162.1h55c0.2,2.1,0.3,4.2,0.4,6.3l-2-2l-17.1,17.3v5.3H392V162.1z M392,193.9h16.7L392,210.6V193.9z M228.4,283
			c-4.6-8.2-8.5-16.6-11.8-25.4h22.1c2.2,8.9,4.8,17.4,7.9,25.4H228.4z M325.4,193.9c0,9.1,0.2,18.1,0.4,26.8h-9v-11l-15.9-15.9
			L325.4,193.9L325.4,193.9z M281.8,188.9c0.1-9,0.7-18,1.7-26.8h43c-0.7,8.8-1.1,17.7-1.2,26.8H281.8z M316.8,225.8h9.2
			c0.3,9.2,0.8,18.1,1.4,26.8h-10.6V225.8z M327,157.1h-42.8c1.3-9.1,3.1-18,5.4-26.8h40.9C329.1,139,327.9,148,327,157.1z
			 M291,125.3c1.1-3.7,2.2-7.5,3.5-11.1c1.8-5.3,3.8-10.6,6-15.7h36.8c-2.2,8.6-4.2,17.5-5.9,26.8H291L291,125.3z M302.8,93.5
			c4.3-9.3,9.1-18.3,14.6-26.8h29.9c-3.1,8.3-5.9,17.3-8.6,26.8H302.8z M320.6,61.7c1.4-2.1,2.9-4.2,4.4-6.3
			c5.6-7.7,11.5-14.5,17.3-20.5h18.8c-4.1,7.8-8.2,16.8-12,26.8H320.6z M314.6,61.7h-28.5c2.8-3,5.6-6,8.6-8.8
			c7-6.7,14.1-12.7,21.4-18h19.4C328.3,42.6,321.2,51.6,314.6,61.7z M311.4,66.7c-5.1,8.3-9.9,17.2-14.1,26.8h-34.8
			c5.6-9.4,12-18.4,19.1-26.8H311.4L311.4,66.7z M295.1,98.5c-3.5,8.5-6.7,17.4-9.3,26.8h-38.2c1.7-4.8,3.6-9.5,5.7-14.1
			c2-4.3,4.1-8.5,6.4-12.7L295.1,98.5L295.1,98.5z M284.5,130.3c-2.2,8.6-4,17.5-5.3,26.8h-40c1.6-9.2,3.8-18.1,6.6-26.8H284.5z
			 M278.5,162.1c-1,8.7-1.6,17.6-1.7,26.8h-40.5c0.1-9.1,0.8-18,2.1-26.8H278.5z M276.8,193.9c0.1,9.1,0.6,18.1,1.6,26.8h-40.8
			c-0.8-8.7-1.3-17.6-1.3-26.8H276.8z M282.1,283H252c-3.2-8.1-5.9-16.5-8.1-25.4h38.2V283z M282.1,252.6h-39.4
			c-2-8.6-3.5-17.5-4.5-26.8H279c0.8,6.3,1.9,12.4,3.1,18.5V252.6z M281.8,193.9H298l-15.5,15.5
			C282.1,204.3,281.9,199.1,281.8,193.9z M313.8,211.9l-13.6,13.6V284h-15.1v-73l14.3-14.3l14.3,14.3v0.9H313.8z M316.8,283v-25.4
			h11c0.7,8.8,1.6,17.3,2.7,25.4H316.8z M336.1,283h-0.6c-1.1-7.9-2-16.4-2.7-25.4h3.3L336.1,283L336.1,283z M336.1,252.6h-3.7
			c-0.6-8.5-1.1-17.5-1.4-26.8h5.2v26.8H336.1z M336.1,220.8h-5.3c-0.3-8.6-0.4-17.6-0.4-26.8h5.7L336.1,220.8L336.1,220.8z
			 M336.1,188.9h-5.7c0.1-9.3,0.5-18.2,1.2-26.8h11.6l-7,7.1v19.7H336.1L336.1,188.9z M383.6,171.4l-21.1,21.5v91.2h-23.4V170.5
			l22.3-22.6l22.3,22.6L383.6,171.4L383.6,171.4z M386.6,169.2l-7-7.1h7V169.2z M386.6,157.1h-11.9l-13.3-13.5l-13.3,13.5h-16
			c0.9-9.4,2.1-18.4,3.6-26.8h51v26.8H386.6z M386.6,125.3h-50.1c1.8-9.7,3.8-18.6,6-26.8h44.1V125.3z M386.6,93.5h-42.7
			c2.9-10.4,5.9-19.4,8.7-26.8h34V93.5z M386.6,61.7h-32.1c0.5-1.2,0.9-2.4,1.4-3.5c3.5-8.5,7.2-16.3,10.9-23.3h19.8L386.6,61.7
			L386.6,61.7z M386.6,7.8v22h-16.9c2.5-4.3,5.1-8.3,7.6-11.7C381,13.1,384.1,9.8,386.6,7.8z M363.9,29.9h-16.4
			c11.3-10.7,22.4-18,31.7-21.8C374.3,13.1,369.1,20.5,363.9,29.9z M340.2,29.9h-16.9c14.5-9.6,29-16.3,41.9-20.3
			C357.3,14.5,348.7,21.3,340.2,29.9z M318.6,19.6c10.6-4.5,21.6-8,32.8-10.4c-12,4.9-24.6,11.8-37,20.6H298
			C304.7,26,311.5,22.6,318.6,19.6z M259.3,59.6c9.4-9.4,19.6-17.7,30.6-24.8h17.9c-9.9,7.7-19.5,16.6-28.4,26.8h-22.1
			C258,61,258.6,60.3,259.3,59.6z M252.6,66.7h22.6c-6.7,8.2-12.9,17.1-18.4,26.8h-24.3C238.3,84,245.1,75,252.6,66.7z M219.3,119
			c3-7.1,6.4-13.9,10.2-20.5h24.6c-4.5,8.4-8.4,17.4-11.7,26.8h-25.5C217.6,123.2,218.4,121.1,219.3,119z M214.9,130.3h25.7
			c-2.7,8.5-4.9,17.5-6.5,26.8h-26.3C209.5,148,211.9,139.1,214.9,130.3z M206.9,162.1h26.4c-1.2,8.6-1.9,17.5-2,26.8h-26.7
			C204.8,179.9,205.5,171,206.9,162.1z M204.7,193.9h26.6c0.1,9.3,0.5,18.2,1.3,26.8h-25.7C205.5,211.9,204.8,203,204.7,193.9z
			 M233.2,225.8c1.1,9.3,2.6,18.3,4.5,26.8h-22.8c-3-8.7-5.4-17.7-7.1-26.8H233.2z"/>
	</g>
</g>
</svg>
